# xmcd CD database file
#
# Track frame offsets:
#	150
#	36675
#	72455
#	102040
#	133655
#	168057
#	198060
#	219115
#	249457
#
# Disc length: 3618 seconds
#
# Revision: 0
# Processed by: cddbd v1.5.2PL0 Copyright (c) Steve Scherf et al.
# Submitted via: CDex 1.51
#
DISCID=780e2009
DTITLE=Fred Hersch - Let yourself go
DYEAR=1999
DGENRE=Jazz
TTITLE0=Black is the color - Love theme from spartacus
TTITLE1=Speak low
TTITLE2=My old man
TTITLE3=I loves you, Porgy
TTITLE4=Moon and sand
TTITLE5=departed
TTITLE6=Letyourself go
TTITLE7=Blue Monk
TTITLE8=The nearness of you
EXTD=YEAR: 1999
EXTT0=
EXTT1=
EXTT2=
EXTT3=
EXTT4=
EXTT5=
EXTT6=
EXTT7=
EXTT8=
PLAYORDER=
